<?xml version="1.0" encoding="UTF-8" standalone="no"?>
<svg
   xmlns:dc="http://purl.org/dc/elements/1.1/"
   xmlns:cc="http://creativecommons.org/ns#"
   xmlns:rdf="http://www.w3.org/1999/02/22-rdf-syntax-ns#"
   xmlns:svg="http://www.w3.org/2000/svg"
   xmlns="http://www.w3.org/2000/svg"
   xmlns:sodipodi="http://sodipodi.sourceforge.net/DTD/sodipodi-0.dtd"
   xmlns:inkscape="http://www.inkscape.org/namespaces/inkscape"
   version="1.1"
   id="Layer_1"
   x="0px"
   y="0px"
   width="536"
   height="245"
   viewBox="0 0 536 244.9999999999999"
   enable-background="new 0 0 578 462"
   xml:space="preserve"
   inkscape:version="0.91 r13725"
   sodipodi:docname="Bat-2.svg"><metadata
     id="metadata8"><rdf:RDF><cc:Work
         rdf:about=""><dc:format>image/svg+xml</dc:format><dc:type
           rdf:resource="http://purl.org/dc/dcmitype/StillImage" /><dc:date>2016</dc:date><dc:creator><cc:Agent><dc:title>Lazur</dc:title></cc:Agent></dc:creator><dc:description>Original raster images of this series were uploaded by NicholasJudy456 to openclipart embedded in svg-s (416 in total).  This is one of the refixes upon request by the original author.</dc:description><dc:contributor><cc:Agent><dc:title /></cc:Agent></dc:contributor><dc:title /></cc:Work></rdf:RDF></metadata><defs
     id="defs6" /><sodipodi:namedview
     pagecolor="#ffffff"
     bordercolor="#666666"
     borderopacity="1"
     objecttolerance="10"
     gridtolerance="10"
     guidetolerance="10"
     inkscape:pageopacity="0"
     inkscape:pageshadow="2"
     inkscape:window-width="1366"
     inkscape:window-height="705"
     id="namedview4"
     showgrid="false"
     borderlayer="true"
     inkscape:showpageshadow="false"
     inkscape:zoom="2.26530612244898"
     inkscape:cx="268"
     inkscape:cy="122.5"
     inkscape:window-x="-8"
     inkscape:window-y="-8"
     inkscape:window-maximized="1"
     inkscape:current-layer="Layer_1"
     fit-margin-top="0"
     fit-margin-left="0"
     fit-margin-right="0"
     fit-margin-bottom="0"
     showguides="true"
     inkscape:guide-bbox="true" /><path
     inkscape:connector-curvature="0"
     id="path4791"
     d="m 271,219.9631948469355 -9.398556574684,-6.865317723533 -9.628387481475,-8.2376408245836 -3.4646788153994,-10.8602362988189 -3.371612518525,-10.1998573679754 -0.6367646099166,-0.6998573679754 -18.5,1.9248816783345 -19.3169495911651,1.9498573679754 2.6254720495027,-4.2250243103591 5.063282771119,-7.4432492250441 1.6208611304513,-3.1932492250442 -0.746333179954,-0.4236023535061 -5.823470224855,-2.0797016014934 -5.0771370449011,-1.6560992479871 -17.8165934109336,8.545887037369 -18.1904669716721,8.1720134766313 1.1406936581861,-7.7729362108316 2.0699189937643,-9.7815927950289 0.5553517748396,-2.3825301449352 -10.3023149771911,0.6959060955538 -10.302314977191,0.6959060955537 -25.5,10.0386588390901 -26.83483659788649,10.5761677107352 -1.33483659788665,0.5375088716452 3.07183453804144,-6.0852700306748 3.0718345380416,-6.0852700306749 1.4990275440948,-9.2682481464284 1.4990275440947,-9.2682481464284 -0.7360254842496,-0.7221526338653 -9.20537452484953,-4.2859021590586 -8.46934904059995,-3.5637495251934 -23.74626554353325,9.0704042417862 -23.74626554353313,9.0704042417861 -10.72839887018897,2.9021256453686 -11.04047762513036,2.5900468904224 6.37205060052691,-9.2226532123467 6.68412935546831,-8.9105744574005 24.72939583516051,-25.5211706485391 24.72939583516043,-25.5211706485392 28.34256701863504,-17.64140809360454 40.4190940948735,-24.72882935146079 12.0765270762389,-7.08742125785631 3.070817927577,0 3.0708179275769,-6e-14 1.127204855831,6.75 1.6639395759272,9.25 0.5367347200965,2.5 8.312449837233,6.17384193663798 8.312449837233,6.17384193663797 7.334703527404,3.69369746431251 7.334703527404,3.69369746431255 14.5415620556198,4.26714915553589 14.7074037715527,4.13246059904952 -2.2704734475721,-13.63468855648642 -2.4363151635049,-13.5 1.5484941514112,-15.5 1.5484941514115,-15.5 4.0711611467527,-9.72471926190355 4.0711611467529,-9.72471926190348 5.150818149408,-2.98182411555991 5.1508181494079,-2.9818241155599 0.7051145930156,5.70654337746345 1.3272081428552,12.43426492356591 0.6220935498396,6.72772154610246 4.8655014978085,-2.46553619694467 4.8655014978084,-2.4655361969447 13.3624749762295,-1.54914025748786 13.3624749762295,-1.54914025748784 11.60453406382,4.40303626483626 11.60453406382,4.40303626483629 0.710179842121,-11.36608135650622 0.7101798421207,-11.36608135650616 3.8801014771662,-2e-14 3.880101477166,-3e-14 0.0031948552,0.75 1.5323047575723,9.75 1.5291099023743,9.00000000000003 4.0206589912055,11.09708202072773 4.0206589912056,11.09708202072773 -1.5632631849923,12.40291797927225 -2.140861579721,16.15291797927226 -0.5775983947287,3.75 5.270556485949,0 5.270556485949,0 21.7976756010344,-12.25 21.7976756010345,-12.25 0.025242678362,-4 1.0678446065378,-7.75425515624134 1.0426019281759,-3.75425515624135 3.911983070125,-1.99574484375865 3.9119830701251,-1.99574484375862 4.2898380672965,0.0131242451818 4.2898380672962,0.0131242451818 20.2534082547728,19.23687575481815 20.253408254773,19.2368757548182 31.4929102812827,34.99999999999999 31.4929102812825,35 6.5808394518945,11.339508678713 6.1044342101414,11.8159139204727 -20.4335042210403,-12.0025973061418 -26.07223605136,-15.5659139204728 -6.1151370720717,-3.0869113725711 -7.5640540848885,0 -7.5640540848885,0 -1.9860887433384,4.633357090689 -1.9860887433386,4.633357090689 2.6874440934017,9.616642909311 2.6874440934018,9.616642909311 5.8949670193545,11.8558816873017 5.403587079034,12.3472616276186 -9.9955233032691,-6.1349680872515 -9.5041433629484,-6.6263480275685 -27.6504711373386,-13.4604946388125 -27.6504711373385,-13.4604946388126 -1.6647905387592,0.9560937437119 -2.9119267295145,1.7968281016868 -1.2471361907555,0.8407343579749 2.4744015145703,12.882154279927 2.1858754756556,13.1706803188426 -6.7272653238148,-4.1720313115879 -6.4387392849001,-4.4605573505035 -15.255696913921,-6.9409837961421 -15.2556969139211,-6.940983796142 -1.0165133737982,1.8993726130069 -1.0165133737983,1.899372613007 4.5846112952769,9.1285068109811 4.1007158129018,9.6124022933551 -4.8124010075576,-2.0475366912386 -4.3285055251826,-2.5314321736127 -15.3696308261017,-1.6037648084359 -15.5741642914118,-1.3067289678709 -5.8093862046958,8.2970358405649 -5.6048527393856,8 -8.3209829692024,8.2027611965714 -8.3209829692027,8.2027611965714 -4.5,1.0227928257805 z"
     style="fill:#000000"
     sodipodi:nodetypes="ccccccccccccccccccccccccccccccccccccccccccccccccccccccccccccccccccccccccccccccccccccccccccccccccccccccccccccccccccccccccccccccccccccccccc" /><path
     inkscape:connector-curvature="0"
     id="path4795"
     d="m 258,67 -2,0 -2,-2 -2,-2 0,-2 0,-2 2,-2 2,-2 2,0 2,0 2,2 2,2 0,2 0,2 -2,2 -2,2 z m 45,0 -1.6228771067357,0 -2.1885614466321,-2.03895514741953 -2.1885614466322,-2.03895514741953 0,-2.46104485258047 0,-2.46104485258047 2,-2 2,-2 1.9610448525805,0 1.9610448525804,0 2.0389551474196,2.18856144663215 2.0389551474195,2.18856144663215 0,2.27248340594832 0,2.27248340594832 -2.1885614466321,2.03895514741953 -2.1885614466322,2.03895514741953 z"
     style="fill:#fefefe"
     sodipodi:nodetypes="cccccccccccccccccccccccccccccccccc" /></svg>